<svg xmlns="http://www.w3.org/2000/svg" viewBox="0 0 342.78 192.79"><defs><style>.cls-1{fill:#2f3e4f;}.cls-2{fill:#c2e6dc;}.cls-3{fill:#313566;}.cls-4{fill:#55b99e;}.cls-5{fill:#f2cfaf;}</style></defs><title>jumbotron-image</title><g id="Layer_2" data-name="Layer 2"><g id="OBJECTS"><path class="cls-1" d="M339.85,186.93H2.93A2.93,2.93,0,0,0,0,189.86H0a2.93,2.93,0,0,0,2.93,2.93H339.85a2.93,2.93,0,0,0,2.93-2.93h0A2.93,2.93,0,0,0,339.85,186.93Z"/><path class="cls-1" d="M324.92,132.37c-.89-1.2-2.59-.74-3.44-1.5-2-1.78-1.37-3.41-.31-5,1.65-2.51,3.71-3.9,7-2.76s5,3.17,8.71,1.49c4.9-2.22,6.28-10.44-.39-11-.68,0-1.42.22-2.09.15-1.36-.15-2.86-.5-3.63-1.74a3.77,3.77,0,0,1-.49-2.33,4.89,4.89,0,0,1,.57-2.26,9.86,9.86,0,0,1,2.83-2.06c2.2-1.38,4.63-2.45,6.43-4.39,2.38-2.55,3.52-6.91,1-9.79-2.06-2.33-5.78-2.52-8.44-1.17-2,1-3.23,3.1-4.31,5-.6,1-1.16,2.09-1.77,3.13a7.58,7.58,0,0,1-2.42,3.06,8.66,8.66,0,0,1-4.47,1c-4.55-.05-5.1-3.42-6.84-6.49-1.45-2.55-4.26-3.89-6.89-2.09-2.31,1.59-2.64,4.53-2.35,7.08.26,2.34,4,15.4-.14,13.82-.83-.32-1.7-2.61-2.87-3.19A4.86,4.86,0,0,0,297,111c-2.77.86-3.67,3.63-2.65,6.13.9,2.23,2.11,4,2.06,6.58-.06,3.08-1.63,4.46-3.27,6.67-1.78,2.39-2.66,5.18-.71,7.77s5.23,3.25,8.19,2.76a28.53,28.53,0,0,0,6.12-2.15c3.21-1.32,4.27,1.19,6.81,2.39C317.62,143.06,328.93,137.79,324.92,132.37Z"/><path class="cls-2" d="M337,93.75c-4.17,5.67-9.29,10.09-14.47,14.8a157.49,157.49,0,0,0-13.93,15.17c-4.39,5.19-9.93,9.09-14.61,14a60.2,60.2,0,0,0-11.26,15.92c-.11.25.2.54.4.31,2.12-2.35,3.85-5.16,5.74-7.7a81.79,81.79,0,0,1,6.72-8.14c4.84-5,10.24-9.17,14.67-14.58A137.64,137.64,0,0,1,324,108.74c4.84-4.41,9.93-9.14,13.16-14.92a.07.07,0,0,0-.11-.07Z"/><path class="cls-2" d="M310.22,99.23c-1.83,7.3,7.72,13.37,2.18,20.17-.11.13,0,.39.19.33,3.06-1,3.4-5,2.57-7.59-1.37-4.37-5.88-7.89-4.71-12.85a.12.12,0,0,0-.23-.06Z"/><path class="cls-2" d="M335.84,117.71c-4.83,1.44-9-2.54-13.63-3-4.43-.46-7.13,2.32-9.77,5.4a.07.07,0,0,0,.09.1,26.91,26.91,0,0,1,5.86-3.6c2.4-1,4.78-.51,7.2.15,3.56,1,6.62,2.38,10.29,1.13.1,0,.07-.19,0-.16Z"/><path class="cls-2" d="M298.46,115.24a16.32,16.32,0,0,0,1.82,3.52,43,43,0,0,1,2.76,3.45c1.92,3.49-.82,7.32-2.43,10.33a.22.22,0,0,0,.34.26c2.25-2.1,4.42-5.05,3.86-8.33a7.5,7.5,0,0,0-2.14-3.8,18.25,18.25,0,0,1-4-5.52c0-.11-.24,0-.2.09Z"/><path class="cls-2" d="M320.21,134.33c-4.7,2.66-9-2-13.64-2.55-3.46-.45-7.46.47-9.69,3.32a.27.27,0,0,0,.32.42,22.67,22.67,0,0,1,5.82-2.26,14.42,14.42,0,0,1,7.43.89c3.22,1.1,6.74,2.4,9.83.31a.07.07,0,0,0-.07-.13Z"/><path class="cls-3" d="M314,105.8c-1.22-.92-2.76,0-3.81-.48-2.48-1.17-2.34-2.95-1.76-4.85.89-2.94,2.51-4.89,6-4.72s5.83,1.66,9-1.06c4.16-3.59,3.14-12.06-3.56-10.67-.69.15-1.33.63-2,.75-1.37.25-2.95.34-4.07-.66A3.82,3.82,0,0,1,312.61,82a4.93,4.93,0,0,1-.09-2.38,10.12,10.12,0,0,1,2.18-2.84c1.76-2,3.83-3.75,5-6.17,1.6-3.19,1.45-7.8-1.88-9.89-2.7-1.69-6.41-.8-8.62,1.3-1.66,1.57-2.28,4-2.8,6.11-.28,1.2-.52,2.4-.82,3.58a8,8,0,0,1-1.5,3.72A8.93,8.93,0,0,1,300,77.7c-4.49,1.26-6-1.88-8.59-4.39-2.16-2.09-5.31-2.59-7.37-.06-1.8,2.23-1.28,5.21-.27,7.63.94,2.22,8.35,14,3.86,13.59-.9-.07-2.41-2.06-3.73-2.29a5,5,0,0,0-3.63.7c-2.47,1.64-2.55,4.61-.82,6.78,1.53,1.92,3.23,3.34,3.93,5.86.83,3-.31,4.85-1.29,7.49-1.05,2.86-1.11,5.85,1.55,7.83s6.07,1.68,8.84.34a29.78,29.78,0,0,0,5.38-3.88c2.78-2.22,4.54-.07,7.38.38C309.87,118.4,319.44,110,314,105.8Z"/><path class="cls-4" d="M314.66,64.4c-2.45,6.77-6.2,12.58-9.91,18.71s-6.42,12.41-9.29,18.91-7.12,11.79-10.3,17.94a61.55,61.55,0,0,0-6.44,18.88c0,.28.35.48.48.19,1.4-2.92,2.28-6.17,3.41-9.21a81.31,81.31,0,0,1,4.24-9.94c3.31-6.28,7.4-12,10.17-18.54a140.31,140.31,0,0,1,9.17-18.46c3.48-5.73,7.11-11.84,8.6-18.45,0-.08-.1-.11-.13,0Z"/><path class="cls-4" d="M289.94,77.53c.31,7.69,11.44,10.88,8,19.16-.07.16.1.39.28.27,2.72-1.84,1.9-5.86.33-8.19-2.61-3.89-8-6-8.34-11.25,0-.15-.25-.15-.24,0Z"/><path class="cls-4" d="M320.43,88.26c-4.33,2.8-9.59.11-14.26,1-4.48.83-6.32,4.34-8,8.13a.07.07,0,0,0,.12.07,27.13,27.13,0,0,1,4.7-5.22c2.07-1.67,4.55-1.9,7.11-1.94,3.78-.07,7.19.41,10.43-1.87.09-.06,0-.2-.08-.14Z"/><path class="cls-4" d="M283,96.63a16.18,16.18,0,0,0,2.8,2.93c1.17.94,2.64,1.54,3.7,2.59,2.9,2.87,1.31,7.43.61,10.84a.22.22,0,0,0,.41.16c1.6-2.71,2.87-6.23,1.38-9.29a7.74,7.74,0,0,0-3.2-3.11,18.8,18.8,0,0,1-5.53-4.25c-.08-.1-.25,0-.17.13Z"/><path class="cls-4" d="M309.89,109.09c-3.85,4-9.44.69-14.12,1.43-3.53.56-7.19,2.63-8.55,6.07a.27.27,0,0,0,.43.32,23.62,23.62,0,0,1,5.06-3.91,14.94,14.94,0,0,1,7.55-1.27c3.48.14,7.31.41,9.74-2.54.06-.07,0-.18-.11-.1Z"/><path class="cls-3" d="M67.69,125.42c-1.28.84-.91,2.61-1.73,3.43-1.93,2-3.55,1.22-5.15,0-2.48-1.82-3.78-4-2.44-7.26s3.51-4.95,2-8.83c-2-5.12-10.32-7-11.24-.2-.1.7.14,1.47,0,2.15-.23,1.37-.67,2.89-2,3.61a3.82,3.82,0,0,1-2.4.37,5,5,0,0,1-2.27-.7,10.29,10.29,0,0,1-2-3c-1.28-2.32-2.25-4.86-4.13-6.8-2.48-2.58-6.87-4-10-1.53-2.5,2-2.89,5.76-1.65,8.55.92,2.09,3,3.48,4.83,4.68,1,.66,2.08,1.3,3.1,2a8,8,0,0,1,3,2.65,8.94,8.94,0,0,1,.81,4.62c-.31,4.65-3.77,5-7,6.63-2.69,1.34-4.21,4.15-2.51,6.93,1.5,2.44,4.48,2.95,7.1,2.79,2.41-.14,16-3.2,14.11.9-.37.83-2.75,1.59-3.42,2.76a5,5,0,0,0-.55,3.65c.73,2.87,3.5,4,6.12,3,2.32-.8,4.23-1.94,6.84-1.75,3.14.23,4.46,1.91,6.63,3.71,2.34,2,5.14,3,7.9,1.15s3.61-5.16,3.27-8.22a29.81,29.81,0,0,0-1.87-6.37C72,141,74.63,140.09,76,137.56,78.21,133.47,73.44,121.63,67.69,125.42Z"/><path class="cls-4" d="M28.9,110.94c5.56,4.56,9.79,10,14.33,15.59A161,161,0,0,0,58,141.59c5.07,4.77,8.74,10.65,13.48,15.7a61.69,61.69,0,0,0,15.66,12.37c.24.12.56-.17.33-.4-2.29-2.28-5-4.21-7.55-6.28a82.06,82.06,0,0,1-7.94-7.31c-4.82-5.22-8.81-11-14.09-15.78a139.17,139.17,0,0,1-14.34-14.8c-4.24-5.19-8.8-10.65-14.53-14.26-.07,0-.13,0-.07.11Z"/><path class="cls-4" d="M33,138.62c7.35,2.27,14.08-7.15,20.72-1.12.13.12.4,0,.34-.17-.82-3.18-4.88-3.75-7.6-3.05-4.54,1.17-8.39,5.58-13.39,4.11-.15,0-.22.19-.07.23Z"/><path class="cls-4" d="M53.31,113.46c1.21,5-3.09,9.07-3.83,13.76-.72,4.51,2,7.41,5,10.28.07.07.15,0,.1-.09a27.52,27.52,0,0,1-3.35-6.17c-.88-2.51-.26-4.92.55-7.35,1.19-3.59,2.79-6.64,1.72-10.46a.09.09,0,0,0-.17,0Z"/><path class="cls-4" d="M48.73,151.51a16.38,16.38,0,0,0,3.7-1.66c1.27-.79,2.33-2,3.67-2.63,3.68-1.77,7.44,1.24,10.42,3.05a.22.22,0,0,0,.29-.33c-2-2.42-4.92-4.79-8.29-4.41a7.81,7.81,0,0,0-4,2,18.53,18.53,0,0,1-5.85,3.79c-.12,0,0,.25.07.21Z"/><path class="cls-4" d="M69.43,130.34c2.46,5-2.49,9.14-3.36,13.79-.65,3.52.08,7.66,2.87,10.09a.27.27,0,0,0,.45-.3,23.45,23.45,0,0,1-2-6.08,14.86,14.86,0,0,1,1.32-7.54c1.3-3.23,2.83-6.75.86-10,0-.09-.18,0-.14.06Z"/><path class="cls-1" d="M62,146.46a3.12,3.12,0,0,0-2.29,2.46c-.23,1.5.76,2.68,1.14,4,.63,2.29-1.11,5.36-3.58,3.67a7.73,7.73,0,0,1-2.36-2.23c-.92-1.56,0-2.61.35-4.15.8-3.36-2-5.75-4.86-6.81-2.27-.84-5.9-1.17-6.23,2.1-.17,1.65.88,3.32,1.47,4.78.35.88.7,1.77,1,2.68a5.13,5.13,0,0,1,.56,2,2.15,2.15,0,0,1-.35.84,7.36,7.36,0,0,1-.47.63.34.34,0,0,1-.16.13.38.38,0,0,1-.18,0A4,4,0,0,1,45,156c-3.33-2.27-4.71-7.56-9.55-7.35-3.89.17-6,3.94-7,7.24s-.24,6.41,3.53,6.92c2.47.33,4.83-1,7.29-.63a6,6,0,0,1,3.36,1.69,5.23,5.23,0,0,1,.16,3.82A2.26,2.26,0,0,1,39.64,169a4,4,0,0,0-1.74-.5c-2.45.13-4.29,4-4,6.13.38,3.26,4.27,3.86,6.89,3.29,4-.87,6.67-4,9.26-6.87a8.91,8.91,0,0,1,2.18-2c1.46-.8,3.57-.2,3.62,1.72,0,2.32-3.14,2.53-4.2,4.19-1.7,2.66,1.38,4.65,3.8,4.53,4-.2,5.81-3.88,8.18-6.5,1.62-1.8,3-2.15,5.36-2.32a4,4,0,0,0,3.45-2.39c1.46-2.83,1.64-5.74-.54-8.15-1.54-1.7-2.65-2.58-2.09-5.11.32-1.49.62-2.83,0-4.28C68.6,148.21,64.82,145.62,62,146.46Z"/><path class="cls-2" d="M32.55,155.89c4.65-.51,8.35,3.22,12.27,5.1a44.55,44.55,0,0,0,12.86,3.65c4.41.65,8.87.94,13.32,1.32a145.68,145.68,0,0,1,14.69,2.17c.41.08.72-.56.29-.73-4.18-1.65-8.91-2.13-13.36-2.54-5.11-.46-10.24-.65-15.32-1.43a43.71,43.71,0,0,1-14.06-4.25c-3.41-1.82-6.64-4.35-10.71-3.43-.08,0-.06.14,0,.14Z"/><path class="cls-2" d="M39.43,172.6c2.56-.45,5.51-1,7-3.42,1-1.57,1.29-3.32,2.94-4.37a6.74,6.74,0,0,1,5.18-.85.22.22,0,0,0,.16-.41,5.81,5.81,0,0,0-7.09,1.28c-1.26,1.39-1.42,3.36-2.57,4.79-1.4,1.75-3.59,2.25-5.68,2.68-.2,0-.1.33.09.3Z"/><path class="cls-2" d="M48.09,147.26c1.13,4.21,2.14,8.51,4.82,12.06,2.21,2.94,5.53,5.45,9.39,5.14a.14.14,0,0,0,0-.28A16.15,16.15,0,0,1,53,157.63a41.92,41.92,0,0,1-4.64-10.44.12.12,0,0,0-.22.07Z"/><path class="cls-2" d="M56.61,174.91c2-.54,2.94-2.32,3.68-4.15a10.76,10.76,0,0,1,2-3.88c1.16-1.15,2.81-1.37,4.22-2.06.26-.12.09-.47-.14-.48a6.13,6.13,0,0,0-5.55,2.84c-1.44,2.48-1,6.46-4.27,7.5-.15,0-.08.27.07.23Z"/><path class="cls-2" d="M63.86,151.19c1.47,1.86.71,4,.34,6.14a7.39,7.39,0,0,0,.39,4.16,6.26,6.26,0,0,0,6.66,3.93c.25,0,.33-.43,0-.47a6.8,6.8,0,0,1-6.2-7.2c.15-2.35,1-4.91-1.06-6.7-.09-.08-.26,0-.18.14Z"/><rect class="cls-1" x="149.02" y="151.16" width="139.38" height="20.09"/><path class="cls-2" d="M295.37,174.4h-9.7c.05-.54.08-1.08.08-1.64a16.43,16.43,0,1,0-32.85,0,13.56,13.56,0,0,0,.07,1.43,3.63,3.63,0,0,1-3.64,3.7h-60.9a5.09,5.09,0,0,1-5.08-5.11v0a16.43,16.43,0,1,0-32.85,0c0,.56,0,1.1.08,1.64h-5.06s-6.77-9.33-4.36-24.85c0,0-2.34-9.12,36.69-8.55l2.79-2.06,1.73-1.29s12.76-15.16,17.91-20.15a8.08,8.08,0,0,1,1.92-1.57c2.14-.72,54.47-4.35,71.66,1.47,15.73,5.33,32,32.85,32,32.85S306.62,177.74,295.37,174.4Z"/><circle class="cls-1" cx="167.12" cy="173.24" r="14.91"/><circle class="cls-4" cx="167.12" cy="173.24" r="8.64"/><circle class="cls-1" cx="269.32" cy="173.24" r="14.91"/><circle class="cls-4" cx="269.32" cy="173.24" r="8.64"/><rect class="cls-1" x="137.3" y="163.64" width="11.73" height="4.46" rx="1.96"/><rect class="cls-1" x="298.5" y="164.59" width="10.4" height="5.6" rx="2.46"/><path class="cls-1" d="M201.41,122l-13.85,16.32a2.83,2.83,0,0,1-2.41,1l-4.51-.36,1.73-1.29s12.76-15.16,17.91-20.15l.15.07A2.84,2.84,0,0,1,201.41,122Z"/><path class="cls-1" d="M198,133.33l8.7-10.94a3.73,3.73,0,0,1,2.92-1.41h25.26a3.73,3.73,0,0,1,3.73,3.73v10.73a3.73,3.73,0,0,1-3.7,3.73l-34,.21A3.73,3.73,0,0,1,198,133.33Z"/><path class="cls-1" d="M243.73,125.1v10.21a4.11,4.11,0,0,0,4.11,4.12h20a4.11,4.11,0,0,0,3.44-6.37l-6.71-10.22a4.11,4.11,0,0,0-3.44-1.86H247.84A4.11,4.11,0,0,0,243.73,125.1Z"/><path class="cls-1" d="M145,151.16h.37a0,0,0,0,1,0,0v6.55a0,0,0,0,1,0,0H145a2.67,2.67,0,0,1-2.67-2.67v-1.22A2.67,2.67,0,0,1,145,151.16Z"/><rect class="cls-1" x="186.68" y="164.59" width="54.98" height="3.89" rx="1.71"/><rect class="cls-1" x="232.17" y="144.75" width="8.26" height="2.09" rx="0.92"/><path class="cls-4" d="M251,154.15a2.09,2.09,0,1,1-2.09-2.09A2.1,2.1,0,0,1,251,154.15Z"/><path class="cls-4" d="M302.74,162.32l-.63.11a1.38,1.38,0,0,1-1.62-1.35V152.7a1.38,1.38,0,0,1,1.63-1.35l.64.12a1.37,1.37,0,0,1,1.12,1.35V161A1.38,1.38,0,0,1,302.74,162.32Z"/><rect class="cls-1" x="221.06" y="112.03" width="2.22" height="3.79"/><rect class="cls-1" x="248.2" y="112.03" width="2.22" height="3.79"/><rect class="cls-4" x="217.91" y="100.68" width="37.18" height="10.4"/><rect class="cls-2" x="215" y="90.28" width="32.74" height="10.4"/><rect class="cls-3" x="225.57" y="79.89" width="28.15" height="10.4"/><rect class="cls-1" x="237.45" y="90.28" width="2.35" height="10.4" transform="translate(477.25 190.97) rotate(180)"/><rect class="cls-1" x="220.27" y="90.28" width="2.35" height="10.4" transform="translate(442.9 190.97) rotate(180)"/><rect class="cls-2" x="224.39" y="100.68" width="2.35" height="10.4" transform="translate(451.14 211.76) rotate(180)"/><rect class="cls-2" x="246.57" y="100.68" width="2.35" height="10.4" transform="translate(495.48 211.76) rotate(180)"/><rect class="cls-4" x="246.57" y="79.89" width="2.35" height="10.4" transform="translate(495.48 170.17) rotate(180)"/><rect class="cls-4" x="229.4" y="79.89" width="2.35" height="10.4" transform="translate(461.15 170.17) rotate(180)"/><rect class="cls-1" x="213.74" y="111.08" width="44.08" height="0.95"/><path class="cls-2" d="M282.26,10.15c2.77,10.35-28.5,17.06-110.54,39s-104.3,8.48-104.3,8.48l-1.2-4.49C80.94,42.84,205.81,11.59,236.09,3.48c16.15-4.33,24.09-4,28.52-2.43,3.09,1.06,4.46,2.69,5.75,3.67a4,4,0,0,0,1,.61C274.89,6.89,280.81,4.74,282.26,10.15Z"/><polygon class="cls-4" points="189.22 34.53 196.88 35.83 185.98 44.86 177.87 39.22 189.22 34.53"/><path class="cls-4" d="M116.65,35.57l0,0C101.34,40,87.84,44.23,78.48,47.68h0L59.34,12.73l3.25-.87a21.49,21.49,0,0,1,21.11,6C92.15,26.67,105.64,38.2,116.65,35.57Z"/><rect class="cls-3" x="76.92" y="47.67" width="27.68" height="5.54" rx="1.79" transform="translate(-9.96 25.21) rotate(-15)"/><rect class="cls-1" x="115.57" y="39.96" width="9.18" height="15.39" rx="2.03" transform="translate(-8.24 32.72) rotate(-15)"/><path class="cls-4" d="M118,48.24a.68.68,0,1,1-1.32.35.68.68,0,0,1,.48-.83A.69.69,0,0,1,118,48.24Z"/><rect class="cls-1" x="233.94" y="8.25" width="9.18" height="15.39" rx="2.03" transform="translate(4 62.28) rotate(-15)"/><path class="cls-4" d="M236.35,16.53a.67.67,0,0,1-.48.83.68.68,0,1,1,.48-.83Z"/><ellipse class="cls-1" cx="180.84" cy="30.42" rx="3.03" ry="4.25" transform="translate(-1.71 47.84) rotate(-15)"/><path class="cls-1" d="M175.45,31.86c.61,2.27-.21,4.46-1.83,4.89s-3.42-1-4-3.32.21-4.45,1.83-4.88S174.84,29.6,175.45,31.86Z"/><ellipse class="cls-1" cx="163.88" cy="34.96" rx="3.03" ry="4.25" transform="translate(-3.47 43.6) rotate(-15)"/><ellipse class="cls-1" cx="155.54" cy="37.2" rx="3.03" ry="4.25" transform="matrix(0.97, -0.26, 0.26, 0.97, -4.33, 41.52)"/><path class="cls-1" d="M149.82,38.73c.61,2.27-.21,4.45-1.83,4.89s-3.42-1-4-3.32.22-4.45,1.83-4.89S149.22,36.46,149.82,38.73Z"/><path class="cls-1" d="M141.92,40.85c.61,2.26-.21,4.45-1.83,4.88s-3.42-1-4-3.31.21-4.46,1.83-4.89S141.31,38.58,141.92,40.85Z"/><path class="cls-1" d="M225.94,18.33c.61,2.27-.21,4.46-1.83,4.89s-3.42-1-4-3.32.21-4.45,1.83-4.88S225.33,16.07,225.94,18.33Z"/><path class="cls-1" d="M217.3,20.65c.6,2.27-.22,4.45-1.83,4.89s-3.43-1.05-4-3.32.21-4.45,1.83-4.89S216.69,18.38,217.3,20.65Z"/><path class="cls-1" d="M209,22.88c.6,2.27-.21,4.46-1.83,4.89s-3.43-1.05-4-3.32.21-4.45,1.83-4.88S208.35,20.62,209,22.88Z"/><path class="cls-1" d="M200.31,25.2c.61,2.27-.21,4.45-1.83,4.89s-3.42-1.05-4-3.32.22-4.45,1.84-4.89S199.71,22.94,200.31,25.2Z"/><ellipse class="cls-1" cx="189.48" cy="28.1" rx="3.03" ry="4.25" transform="translate(-0.82 50) rotate(-15)"/><path class="cls-1" d="M270.36,4.72a9.31,9.31,0,0,0-1.42.52.64.64,0,0,1-.17,0,.38.38,0,0,1-.26-.11c-1.28-.82-2.54-1.69-3.78-2.58,0-.5-.05-1-.11-1.5V1.05C267.7,2.11,269.07,3.74,270.36,4.72Z"/><path class="cls-1" d="M260.42,4a.55.55,0,0,1,.37-.67,3.38,3.38,0,0,1,3.27.2,13.88,13.88,0,0,1,2.56,1.57.55.55,0,0,1-.19,1l-4.55,1.22a.55.55,0,0,1-.68-.39Z"/><rect class="cls-3" x="127.5" y="40.15" width="62.79" height="5" rx="1.61" transform="translate(-5.63 42.58) rotate(-15)"/><path class="cls-4" d="M186.3,41a.81.81,0,0,0-.37.92l.61,2.3,1,3.76.62,2.3a.8.8,0,0,0,.78.61c3.33,0,19.25-.31,30-6.48l-1.21-4.51-1-3.77-1.21-4.51C203.13,31.6,189.18,39.29,186.3,41Z"/><path class="cls-4" d="M182.63,43.46a.59.59,0,0,0-.29.68l.48,1.8.6,2.25.48,1.8a.62.62,0,0,0,.6.45l3.87,0-.88-3.31-.61-2.25L186,41.54Z"/><path class="cls-4" d="M137,182.79s-1.31,4.52.52,6.09,7.75,4.43,9.79,3.82-3.66-4.73-4.3-6.32a14.83,14.83,0,0,1-.38-4.86l-5.11-.45Z"/><path class="cls-4" d="M158.06,182.79s-1.3,4.52.52,6.09,7.75,4.43,9.79,3.82-3.66-4.73-4.3-6.32a14.83,14.83,0,0,1-.38-4.86l-5.11-.45Z"/><path class="cls-1" d="M163.44,120.27s7.66,3,.35,62.35c0,0-3.17,2.3-5.78-.19,0,0-1.27-39.17-5.64-45.46l-9.78,45.93s-3.25,2.81-5.89-.41c0,0-3.39-48.62,1.33-62.18Z"/><rect class="cls-1" x="190.52" y="83.94" width="2.5" height="14.4" rx="0.67" transform="translate(75.32 -86.4) rotate(31.32)"/><path class="cls-5" d="M185.37,98.13,187.44,96s-.06,1.25.68,1.4,1.71,0,2.74-2.42c0,0-.5-2.11.24-3.06.21-.27.62-.06.76.26,0,0-.23-2,.3-2.28.2-.1.7.18.83.38,0,0-.69-1-.09-1.56,0,0,1-.37,2.47,2.48s.37,2.95.07,3.15-.2,1.1-.4,1.4-1.44.57-1.56.77-1.38,2.2-1.71,2.75-3.62,1.8-3.62,1.8Z"/><path class="cls-5" d="M130.84,121.51c-.93,1.78-3.46,6.46-3,8.25.1,1,1.31,2.09,2,2.64,1.19.9,3.86-.38,3.89-1.38a7.07,7.07,0,0,0-1.64-2.55,2,2,0,0,0-.67,1.7,3.17,3.17,0,0,0,0,.41,1.09,1.09,0,0,1-.81-.36c-.06-.07-.1-.15-.16-.22a2.89,2.89,0,0,1-.13-.78,4,4,0,0,1,2.1-3.08,3.05,3.05,0,0,0,2.13-2.82C133.31,123.53,131,121.56,130.84,121.51Z"/><path class="cls-2" d="M150.09,71.9s-16.25,2-20.16,26.57c-.91,5.76.51,16.19.63,23.34,0,1.43,3.67,2.82,4,1.51,1.17-4.53-.55-26.18,7-29.61,0,0-1.52,19.6-4.27,25.45s30.78,10.07,28.47,1.57a44.87,44.87,0,0,1-1.41-14.43s.21,5.91,6,4,18.77-8.76,19-9.94-1.59-3.23-3.37-3.3-15.75,5.72-15.75,5.72-2.94-22.36-12-27.93A21.84,21.84,0,0,0,150.09,71.9Z"/><path class="cls-5" d="M162.71,56.3a8.69,8.69,0,0,0-13.09-2.61c-4.89,4.13-3.22,10.3.28,14.66,0,0,0,0,0,0,.36,3.17-.51,7.76,2.7,9.21,1.09.49,2.65.87,3.56-.14s.55-2.48.35-3.7a4.08,4.08,0,0,0,4.57-2.13,7.11,7.11,0,0,0,.23-3.4,7.85,7.85,0,0,1,1.28-4.79A7.53,7.53,0,0,0,162.71,56.3Z"/><rect class="cls-3" x="88.44" y="140.34" width="22.65" height="47.04" rx="4.93" transform="translate(135.01 -24.72) rotate(41.92)"/><path class="cls-1" d="M97.45,188.69a2.74,2.74,0,1,1-2.89-2.6A2.74,2.74,0,0,1,97.45,188.69Z"/><path class="cls-4" d="M96.4,188.74a1.69,1.69,0,1,1-1.78-1.6A1.7,1.7,0,0,1,96.4,188.74Z"/><rect class="cls-1" x="114.34" y="144.68" width="3.79" height="2.86" rx="0.67" transform="translate(127.37 -40.27) rotate(41.92)"/><rect class="cls-1" x="112.37" y="136.4" width="23.36" height="1.13" transform="translate(-60.67 142.14) rotate(-49.44)"/><path class="cls-1" d="M132.77,129.05a1.62,1.62,0,1,1-1.62-1.62A1.62,1.62,0,0,1,132.77,129.05Z"/><path class="cls-4" d="M81.63,179.19,106,152.93a4.41,4.41,0,0,1,6.25-.21h0a4.41,4.41,0,0,1,.23,6.19L88.32,185.19Z"/><path class="cls-3" d="M162.15,53.83s2.07-1.47,3.65,0,.19,9.24-6.47,5.27a2.37,2.37,0,0,1-1.85,1.12c-1.39.18-3.26-.31-4,2.63S152,66,152,66s.13-4.66-1.77-4.27-2.06,1.69-1,3.76,4,5.39.38,6.18S147.81,68.5,147,67s-.57-2.45-1.19-3.54-2.78-4.64.31-6.47c0,0,.11-5.51,3-6.88s5.81.39,7.58,0S164,48,162.15,53.83Z"/><polygon class="cls-1" points="137.4 75.03 131.69 71.5 119.86 109.32 126.67 108.73 137.4 75.03"/><polygon class="cls-1" points="139.68 67.89 125.37 112.83 135.86 108.18 144.54 78.17 139.68 67.89"/><path class="cls-5" d="M136.58,89a6.92,6.92,0,0,1-4.09,1.52l.66-2.08a30,30,0,0,0-6.2,2.2h0c-2.24-1.62,1.89-4.5,1.47-5-.74-.86-3,.91-4.7,2.34a17.42,17.42,0,0,0-3.14,3.64l-.72,1.88,1.67,1.17,3-.38c.08.47.29.94.89.8,1.13-.26,5,.47,5.75,1.25s3.8.21,4.79-1.51S136.58,89,136.58,89Z"/><path class="cls-2" d="M125.37,95.05l-.91-3.2s-11.8,5.49-14.65,6.05-7-9.1-8.82-10.63-.14-4.31-2.36-5.14-5.07-4-5.07-4-13.2,7.09-8.76,44.18c0,0,15.29,7.77,26.12-.7l-1.2-14.51C114.6,105.53,125.37,95.05,125.37,95.05Z"/><path class="cls-2" d="M121.53,93.19l-1-1.61s-9.13,6.17-11.23,5.06S99.91,84.2,99.91,84.2l-1.24,8,10.68,10.28L121.06,96l.47-2.76"/><path class="cls-3" d="M89.39,89.11c-.58,8,1.72,28.18-6,29.43a5.39,5.39,0,0,1-1.87,0,15.08,15.08,0,0,1-5.92-2.31c-4.05-2.85-4.06-7.31-3.45-10.61.84-4.49-3.55-28.34,10-29.28C86,76,90,80.57,89.39,89.11Z"/><path class="cls-4" d="M83.44,103.13v15.41a5.39,5.39,0,0,1-1.87,0,15.08,15.08,0,0,1-5.92-2.31V103.13a1.72,1.72,0,0,1,1.72-1.72h4.35A1.72,1.72,0,0,1,83.44,103.13Z"/><polygon class="cls-4" points="89.08 106.15 96.06 100.26 97.93 101.89 88.59 110.5 89.08 106.15"/><path class="cls-4" d="M89.45,87.13s1.68-2,3.47-2.23h0l-2.43-1-1.24.59a18.71,18.71,0,0,1,.2,2.6"/><path class="cls-3" d="M74,176.11A21.18,21.18,0,0,0,71,181c-1.29,3.08,3.3,10.62,4.62,10.69s8.19,1.18,9,0-4.86-3.19-5.28-4S76.07,181,77.72,179Z"/><path class="cls-1" d="M85.92,119.29a21,21,0,0,0-.84,12.64C86.75,139.29,74,176.11,74,176.11L77.72,179s15.56-17.22,23.2-38.34l15.38,40.08,4.87-1.53s-7.61-51.19-10.25-57.58h0l-16-4.44Z"/><path class="cls-5" d="M93.56,78.17a21.72,21.72,0,0,0,0-7.36c-.77-3-.7-7.64,6.53-8.75s9.37,4.1,8.26,9.51-3.72,11.44-5.42,10c-3.19-2.7-4.51,1-4.51,1L94,80.25l-.48-2.08"/><path class="cls-3" d="M116.3,180.76s-2,8.47.77,9.1,16-1.69,18.4-3.89c3.37-3.06-13.38,0-14.3-6.74Z"/><path class="cls-1" d="M99.34,84.84s-6.51-7.35-3.7-11c0,0-.76-2.08.83-2.15s.77,2.57.77,2.57,3.05-2.71,2.85-3.33,1.8-3.34,4.16-3.68,1,3.4,1,3.4a6.66,6.66,0,0,0,3.82.49s1.53-7.44-3.26-8.82c0,0-6.88-6.26-14.59,2.08-5.85,6.33.66,9.07-1.94,12.5C84.63,83.12,93.37,86.58,99.34,84.84Z"/></g></g></svg>