<?xml version="1.0" encoding="utf-8"?>
<!-- Generator: Adobe Illustrator 24.0.0, SVG Export Plug-In . SVG Version: 6.00 Build 0)  -->
<svg version="1.1" id="Layer_1" xmlns="http://www.w3.org/2000/svg" xmlns:xlink="http://www.w3.org/1999/xlink" x="0px" y="0px"
	 viewBox="0 0 519.7 288.6" style="enable-background:new 0 0 519.7 288.6;" xml:space="preserve">
<style type="text/css">
	.st0{fill:#EEF8F5;}
</style>
<title>jumbotron-bg</title>
<g id="Layer_2_1_">
	<g id="OBJECTS">
		<path class="st0" d="M519.7,288.7V35.1c-7.6-8.6-16.5-15.8-26.4-21.5c-27.3-15.3-60-17.8-89.3-6.8c-30.8,11.7-57.8,38.2-90.7,36.1
			c-22-1.4-40.8-15.5-61.2-23.7c-20.6-8.2-44.3-10.2-64.9-2s-37.2,27.9-38.4,50c-1.6,29.3,22.1,57.2,15,85.7
			c-4.6,18.7-21.6,31.8-39.3,39.3S87.4,203,69.7,210.5c-27.1,11.5-49.3,32-62.8,58.1c-3.3,6.3-5.6,13-6.9,20L519.7,288.7z"/>
	</g>
</g>
</svg>
