<svg xmlns="http://www.w3.org/2000/svg" xmlns:xlink="http://www.w3.org/1999/xlink" viewBox="0 0 400 80.01"><defs><style>.cls-1{fill:#2f3e4f;}.cls-2{fill:#7ba13d;}.cls-3{fill:url(#linear-gradient);}.cls-4{fill:url(#linear-gradient-2);}.cls-5{fill:url(#linear-gradient-3);}.cls-6{fill:url(#linear-gradient-4);}.cls-7{fill:url(#linear-gradient-5);}.cls-8{fill:url(#linear-gradient-6);}.cls-9{fill:#55b99e;}.cls-10{fill:url(#New_Gradient_Swatch_copy);}.cls-11{fill:url(#New_Gradient_Swatch_copy-2);}.cls-12{fill:url(#New_Gradient_Swatch);}</style><linearGradient id="linear-gradient" x1="65.11" y1="67.4" x2="65.11" y2="23.03" gradientUnits="userSpaceOnUse"><stop offset="0.06" stop-color="#132437"/><stop offset="0.22" stop-color="#324152"/><stop offset="1" stop-color="#959da5"/></linearGradient><linearGradient id="linear-gradient-2" x1="93.41" y1="67.4" x2="93.41" y2="23.03" xlink:href="#linear-gradient"/><linearGradient id="linear-gradient-3" x1="122.14" y1="67.4" x2="122.14" y2="23.03" xlink:href="#linear-gradient"/><linearGradient id="linear-gradient-4" x1="157.3" y1="67.4" x2="157.3" y2="23.03" xlink:href="#linear-gradient"/><linearGradient id="linear-gradient-5" x1="191.13" y1="67.4" x2="191.13" y2="23.03" xlink:href="#linear-gradient"/><linearGradient id="linear-gradient-6" x1="217.68" y1="67.4" x2="217.68" y2="23.03" xlink:href="#linear-gradient"/><linearGradient id="New_Gradient_Swatch_copy" x1="18.17" y1="27.22" x2="18.33" y2="17.75" gradientUnits="userSpaceOnUse"><stop offset="0" stop-color="#55b99e"/><stop offset="1" stop-color="#bbe3d8"/></linearGradient><linearGradient id="New_Gradient_Swatch_copy-2" x1="19.13" y1="48.61" x2="20.95" y2="33.06" xlink:href="#New_Gradient_Swatch_copy"/><linearGradient id="New_Gradient_Swatch" x1="32.23" y1="9.1" x2="32.51" y2="-0.38" gradientUnits="userSpaceOnUse"><stop offset="0" stop-color="#2f3e4f"/><stop offset="1" stop-color="#959da5"/></linearGradient></defs><title>tb-logo</title><g id="Layer_2" data-name="Layer 2"><g id="Layer_1-2" data-name="Layer 1"><path class="cls-1" d="M27.21,0C22.55,0,2.59,20.47,2.59,20.47s21.25-15,24.62-15S43.54,18.66,43.54,18.66l-6,.26V32.29H45.1V25.87a4.25,4.25,0,0,1,4.39-4.1h3.9S31.62,0,27.21,0Z"/><path class="cls-2" d="M70.45,32.19V66.7H59.65V32.19H46.73V28.56Q46.73,23,52,23H83.5v9.16Z"/><path class="cls-2" d="M83.06,50.39q0-18.82,20.71-18.07V43.11H99.88a6.31,6.31,0,0,0-4.65,1.51q-1.5,1.5-1.5,4.89V66.7H83.06Z"/><path class="cls-2" d="M121.83,67.33A18.47,18.47,0,0,1,112.67,66q-5.78-2.64-5.78-9.66.26-9.16,11.93-11,3.51-.63,6.27-1c1.34-.25,2-.79,2-1.63q.12-2-4.65-2c-2.67,0-4.18.8-4.51,2.39H107.77a11.28,11.28,0,0,1,3.89-7.78q4-3,10.54-3.08a22.1,22.1,0,0,1,11,2.45,7.94,7.94,0,0,1,4.14,7.53V53q-.25,8.78-6.65,12.17A21,21,0,0,1,121.83,67.33Zm3.39-15.68c-.67.16-2.18.5-4.52,1s-3.52,1.71-3.52,3.39q.13,2.88,3.39,2.88,6.78,0,6.65-6.27V51A20,20,0,0,1,125.22,51.65Z"/><path class="cls-2" d="M161.82,36.46a4.67,4.67,0,0,1,5-3.76h8l-11.93,34H151.65l-11.92-34H151.4l5.77,20.2Z"/><path class="cls-2" d="M191.45,58.55a6,6,0,0,0,4.4-1.38,5.25,5.25,0,0,1,3.89-1.38h7.53q-3.39,11.67-16.19,11.54-7.79,0-12.05-4.77-4.4-5-4.39-12.92T178.91,37a16,16,0,0,1,12.17-4.89,16.65,16.65,0,0,1,12.3,4.77q4.89,6.27,4.14,15.68H185.68a5.71,5.71,0,0,0,1.26,4.15A5.9,5.9,0,0,0,191.45,58.55ZM191.2,41a5.27,5.27,0,0,0-3.89,1.38,5.94,5.94,0,0,0-1.5,3.26H196.6a5.85,5.85,0,0,0-1.38-3.26A6,6,0,0,0,191.2,41Z"/><path class="cls-2" d="M212.28,23h5.27q5.53,0,5.53,5.27V66.7h-10.8Z"/><path class="cls-3" d="M70.45,32.19V66.7H59.65V32.19H46.73V28.56Q46.73,23,52,23H83.5v9.16Z"/><path class="cls-4" d="M83.06,50.39q0-18.82,20.71-18.07V43.11H99.88a6.31,6.31,0,0,0-4.65,1.51q-1.5,1.5-1.5,4.89V66.7H83.06Z"/><path class="cls-5" d="M121.83,67.33A18.47,18.47,0,0,1,112.67,66q-5.78-2.64-5.78-9.66.26-9.16,11.93-11,3.51-.63,6.27-1c1.34-.25,2-.79,2-1.63q.12-2-4.65-2c-2.67,0-4.18.8-4.51,2.39H107.77a11.28,11.28,0,0,1,3.89-7.78q4-3,10.54-3.08a22.1,22.1,0,0,1,11,2.45,7.94,7.94,0,0,1,4.14,7.53V53q-.25,8.78-6.65,12.17A21,21,0,0,1,121.83,67.33Zm3.39-15.68c-.67.16-2.18.5-4.52,1s-3.52,1.71-3.52,3.39q.13,2.88,3.39,2.88,6.78,0,6.65-6.27V51A20,20,0,0,1,125.22,51.65Z"/><path class="cls-6" d="M161.82,36.46a4.67,4.67,0,0,1,5-3.76h8l-11.93,34H151.65l-11.92-34H151.4l5.77,20.2Z"/><path class="cls-7" d="M191.45,58.55a6,6,0,0,0,4.4-1.38,5.25,5.25,0,0,1,3.89-1.38h7.53q-3.39,11.67-16.19,11.54-7.79,0-12.05-4.77-4.4-5-4.39-12.92T178.91,37a16,16,0,0,1,12.17-4.89,16.65,16.65,0,0,1,12.3,4.77q4.89,6.27,4.14,15.68H185.68a5.71,5.71,0,0,0,1.26,4.15A5.9,5.9,0,0,0,191.45,58.55ZM191.2,41a5.27,5.27,0,0,0-3.89,1.38,5.94,5.94,0,0,0-1.5,3.26H196.6a5.85,5.85,0,0,0-1.38-3.26A6,6,0,0,0,191.2,41Z"/><path class="cls-8" d="M212.28,23h5.27q5.53,0,5.53,5.27V66.7h-10.8Z"/><path class="cls-2" d="M228.69,26.67c0-2.42,1.21-3.64,3.64-3.64h15.06q12.54,0,12.8,10a10.77,10.77,0,0,1-6.28,10.17q7.79,2.5,7.78,11.17-.26,12.42-14.93,12.29H228.69Zm18.19,14.81q7.29,0,7.53-6.9,0-6.64-7.65-6.65H234.59V41.48Zm.25,20.33q4.16,0,6.28-2.07a7.42,7.42,0,0,0,2.13-5.58q0-7.66-8.53-7.78H234.59V61.81Z"/><path class="cls-2" d="M287.62,59.74a9.6,9.6,0,0,0,2-6.09V36.46q0-3.76,3.76-3.76h2.26V53q0,14.3-14.43,14.3T266.79,53V32.7h5.89V53.65a9.6,9.6,0,0,0,2,6.09q2,2.57,6.53,2.57T287.62,59.74Z"/><path class="cls-2" d="M330.28,26.67V51.9a18,18,0,0,1-3.26,11q-3.27,4.4-11.92,4.39t-12-4.27q-3.45-4.26-3.45-13.17-.12-17.7,14.56-17.7,7.15,0,10.16,5.28V23h2.14C329,23,330.28,24.25,330.28,26.67ZM315,62.06q9.54,0,9.54-12.3T315,37.47q-9.54,0-9.54,12.29T315,62.06Z"/><path class="cls-2" d="M366.69,26.67V51.9a18,18,0,0,1-3.27,11q-3.26,4.4-11.92,4.39t-12-4.27q-3.45-4.26-3.45-13.17-.13-17.7,14.55-17.7,7.15,0,10.17,5.28V23h2.13C365.43,23,366.69,24.25,366.69,26.67ZM351.38,62.06q9.53,0,9.53-12.3t-9.53-12.29q-9.54,0-9.54,12.29T351.38,62.06Z"/><path class="cls-2" d="M376.16,32.7l8.78,26.1,7.66-22.34a4.68,4.68,0,0,1,5-3.76H400L386.2,71.85a15.09,15.09,0,0,1-4.39,6.27,8.91,8.91,0,0,1-5.9,1.89h-1.38V74.74h1.38q4.14,0,5.39-3a9.68,9.68,0,0,0-.12-7L370,32.7Z"/><path class="cls-9" d="M228.69,26.67c0-2.42,1.21-3.64,3.64-3.64h15.06q12.54,0,12.8,10a10.77,10.77,0,0,1-6.28,10.17q7.79,2.5,7.78,11.17-.26,12.42-14.93,12.29H228.69Zm18.19,14.81q7.29,0,7.53-6.9,0-6.64-7.65-6.65H234.59V41.48Zm.25,20.33q4.16,0,6.28-2.07a7.42,7.42,0,0,0,2.13-5.58q0-7.66-8.53-7.78H234.59V61.81Z"/><path class="cls-9" d="M287.62,59.74a9.6,9.6,0,0,0,2-6.09V36.46q0-3.76,3.76-3.76h2.26V53q0,14.3-14.43,14.3T266.79,53V32.7h5.89V53.65a9.6,9.6,0,0,0,2,6.09q2,2.57,6.53,2.57T287.62,59.74Z"/><path class="cls-9" d="M330.28,26.67V51.9a18,18,0,0,1-3.26,11q-3.27,4.4-11.92,4.39t-12-4.27q-3.45-4.26-3.45-13.17-.12-17.7,14.56-17.7,7.15,0,10.16,5.28V23h2.14C329,23,330.28,24.25,330.28,26.67ZM315,62.06q9.54,0,9.54-12.3T315,37.47q-9.54,0-9.54,12.29T315,62.06Z"/><path class="cls-9" d="M366.69,26.67V51.9a18,18,0,0,1-3.27,11q-3.26,4.4-11.92,4.39t-12-4.27q-3.45-4.26-3.45-13.17-.13-17.7,14.55-17.7,7.15,0,10.17,5.28V23h2.13C365.43,23,366.69,24.25,366.69,26.67ZM351.38,62.06q9.53,0,9.53-12.3t-9.53-12.29q-9.54,0-9.54,12.29T351.38,62.06Z"/><path class="cls-9" d="M376.16,32.7l8.78,26.1,7.66-22.34a4.68,4.68,0,0,1,5-3.76H400L386.2,71.85a15.09,15.09,0,0,1-4.39,6.27,8.91,8.91,0,0,1-5.9,1.89h-1.38V74.74h1.38q4.14,0,5.39-3a9.68,9.68,0,0,0-.12-7L370,32.7Z"/><path class="cls-9" d="M27,23.84a8.43,8.43,0,0,1-8.55,8.3,8.43,8.43,0,0,1-8.55-8.3,8.42,8.42,0,0,1,8.55-8.29A8.42,8.42,0,0,1,27,23.84Z"/><path class="cls-10" d="M24.36,21.38c0,2.79-2.72,5.06-6.09,5.06s-6.09-2.27-6.09-5.06,2.73-5.05,6.09-5.05S24.36,18.59,24.36,21.38Z"/><path class="cls-1" d="M43,11.14a1.3,1.3,0,0,1-1.29,1.3l-3.37.26c-.72,0-2.59-2.65-2.59-3.37V2.59A1.29,1.29,0,0,1,37.06,1.3h4.67A1.29,1.29,0,0,1,43,2.59Z"/><path class="cls-9" d="M2.33,25.4c3.49,2,9.33,8,24.11,10.11,10.85,1.52,16,.22,16.84,1.55,1.56,2.59-3.89,3.89-9.07,6.22-4.71,2.12-3.69,5-2.85,10.89,1,7.25,2.59,12.7-.78,13.21S22.29,52.61,16.85,53.13c-3.14.3-8,13.22-13.48,13.22s6.22-22.55,2.07-29C1.17,30.64-2.59,22.55,2.33,25.4Z"/><path class="cls-11" d="M2.59,26.69c3.75,2.42,7.52,6,18.4,8.56,9.3,2.21,17.37,1.81,18.92,2.33s-1.55,2.59-5.44,3.89-10.11,9.59-16.85,8.29S8,37.84,8,37.84-1,24.36,2.59,26.69Z"/><path class="cls-12" d="M12.44,11.79C12.83,11.66,24.75.52,27.21.52c1.69,0,9.2,6.35,9.2,6.35s-.38-4.15,0-4.67,5.06-.52,5.19,0c.2.81.39,9.46.39,9.46l9.59,9.2H46.65S31,4.28,27,4.15C24.06,4.05,12.44,11.79,12.44,11.79Z"/></g></g></svg>