<svg xmlns="http://www.w3.org/2000/svg" xmlns:xlink="http://www.w3.org/1999/xlink" viewBox="0 0 200 40"><defs><style>.cls-1{fill:#b8bdc3;}.cls-2{fill:#7ba13d;}.cls-3{fill:url(#linear-gradient);}.cls-4{fill:#55b99e;}.cls-5{fill:url(#New_Gradient_Swatch_copy);}.cls-6{fill:url(#New_Gradient_Swatch_copy-2);}.cls-7{fill:url(#linear-gradient-7);}</style><linearGradient id="linear-gradient" x1="67.45" y1="33.7" x2="67.45" y2="11.52" gradientUnits="userSpaceOnUse"><stop offset="0.06" stop-color="#f5f5f6"/><stop offset="0.22" stop-color="#e4e6e8"/><stop offset="0.29" stop-color="#dadcdf"/><stop offset="0.43" stop-color="#cdd0d4"/><stop offset="0.62" stop-color="#c5c9ce"/><stop offset="1" stop-color="#c3c7cc"/></linearGradient><linearGradient id="New_Gradient_Swatch_copy" x1="9.09" y1="13.61" x2="9.17" y2="8.87" gradientUnits="userSpaceOnUse"><stop offset="0" stop-color="#55b99e"/><stop offset="1" stop-color="#bbe3d8"/></linearGradient><linearGradient id="New_Gradient_Swatch_copy-2" x1="9.57" y1="24.31" x2="10.47" y2="16.53" xlink:href="#New_Gradient_Swatch_copy"/><linearGradient id="linear-gradient-7" x1="16.11" y1="4.55" x2="16.26" y2="-0.19" gradientUnits="userSpaceOnUse"><stop offset="0" stop-color="#fff"/><stop offset="1" stop-color="#959da5"/></linearGradient></defs><title>tb_logo_footer</title><g id="Layer_2" data-name="Layer 2"><g id="Layer_1-2" data-name="Layer 1"><path class="cls-1" d="M13.61,0C11.27,0,1.3,10.24,1.3,10.24S11.92,2.72,13.61,2.72s8.16,6.61,8.16,6.61l-3,.13v6.69h3.76V12.93a2.12,2.12,0,0,1,2.19-2h2S15.81,0,13.61,0Z"/><path class="cls-2" d="M35.22,16.1V33.35H29.83V16.1H23.36V14.28q0-2.76,2.64-2.76H41.75V16.1Z"/><path class="cls-2" d="M41.53,25.2q0-9.42,10.35-9v5.4H49.94a3.16,3.16,0,0,0-2.32.75,3.33,3.33,0,0,0-.76,2.45v8.59H41.53Z"/><path class="cls-2" d="M60.91,33.67A9.36,9.36,0,0,1,56.33,33a4.85,4.85,0,0,1-2.88-4.84q.12-4.58,6-5.52c1.17-.21,2.21-.37,3.14-.5.66-.12,1-.4,1-.81,0-.67-.73-1-2.32-1-1.34,0-2.09.4-2.26,1.19H53.89a5.64,5.64,0,0,1,1.94-3.89,8.74,8.74,0,0,1,5.27-1.53,10.94,10.94,0,0,1,5.52,1.22,3.94,3.94,0,0,1,2.07,3.76v5.46q-.12,4.39-3.32,6.09A10.5,10.5,0,0,1,60.91,33.67Zm1.7-7.85c-.34.09-1.09.25-2.26.5s-1.76.86-1.76,1.7.61,1.44,1.7,1.44c2.26,0,3.36-1,3.32-3.14v-.81A9.57,9.57,0,0,1,62.61,25.82Z"/><path class="cls-2" d="M80.91,18.23a2.34,2.34,0,0,1,2.51-1.88h4l-6,17H75.83l-6-17H75.7l2.89,10.1Z"/><path class="cls-2" d="M95.73,29.27a3,3,0,0,0,2.19-.69,2.64,2.64,0,0,1,2-.69h3.76q-1.69,5.84-8.09,5.78a7.66,7.66,0,0,1-6-2.39,9.43,9.43,0,0,1-2.2-6.46,9.16,9.16,0,0,1,2.13-6.34A8,8,0,0,1,95.54,16a8.33,8.33,0,0,1,6.15,2.39,10.88,10.88,0,0,1,2.07,7.84H92.84a2.85,2.85,0,0,0,.63,2.07A2.94,2.94,0,0,0,95.73,29.27Zm-.13-8.78a2.61,2.61,0,0,0-1.94.69,3,3,0,0,0-.76,1.63h5.4a2.86,2.86,0,0,0-.69-1.63A3,3,0,0,0,95.6,20.49Z"/><path class="cls-2" d="M106.14,11.52h2.64c1.84,0,2.76.88,2.76,2.63v19.2h-5.4Z"/><path class="cls-3" d="M35.22,16.1V33.35H29.83V16.1H23.36V14.28q0-2.76,2.64-2.76H41.75V16.1Z"/><path class="cls-3" d="M41.53,25.2q0-9.42,10.35-9v5.4H49.94a3.16,3.16,0,0,0-2.32.75,3.33,3.33,0,0,0-.76,2.45v8.59H41.53Z"/><path class="cls-3" d="M60.91,33.67A9.36,9.36,0,0,1,56.33,33a4.85,4.85,0,0,1-2.88-4.84q.12-4.58,6-5.52c1.17-.21,2.21-.37,3.14-.5.66-.12,1-.4,1-.81,0-.67-.73-1-2.32-1-1.34,0-2.09.4-2.26,1.19H53.89a5.64,5.64,0,0,1,1.94-3.89,8.74,8.74,0,0,1,5.27-1.53,10.94,10.94,0,0,1,5.52,1.22,3.94,3.94,0,0,1,2.07,3.76v5.46q-.12,4.39-3.32,6.09A10.5,10.5,0,0,1,60.91,33.67Zm1.7-7.85c-.34.09-1.09.25-2.26.5s-1.76.86-1.76,1.7.61,1.44,1.7,1.44c2.26,0,3.36-1,3.32-3.14v-.81A9.57,9.57,0,0,1,62.61,25.82Z"/><path class="cls-3" d="M80.91,18.23a2.34,2.34,0,0,1,2.51-1.88h4l-6,17H75.83l-6-17H75.7l2.89,10.1Z"/><path class="cls-3" d="M95.73,29.27a3,3,0,0,0,2.19-.69,2.64,2.64,0,0,1,2-.69h3.76q-1.69,5.84-8.09,5.78a7.66,7.66,0,0,1-6-2.39,9.43,9.43,0,0,1-2.2-6.46,9.16,9.16,0,0,1,2.13-6.34A8,8,0,0,1,95.54,16a8.33,8.33,0,0,1,6.15,2.39,10.88,10.88,0,0,1,2.07,7.84H92.84a2.85,2.85,0,0,0,.63,2.07A2.94,2.94,0,0,0,95.73,29.27Zm-.13-8.78a2.61,2.61,0,0,0-1.94.69,3,3,0,0,0-.76,1.63h5.4a2.86,2.86,0,0,0-.69-1.63A3,3,0,0,0,95.6,20.49Z"/><path class="cls-3" d="M106.14,11.52h2.64c1.84,0,2.76.88,2.76,2.63v19.2h-5.4Z"/><path class="cls-2" d="M114.34,13.34a1.61,1.61,0,0,1,1.82-1.82h7.53q6.28,0,6.4,5A5.37,5.37,0,0,1,127,21.62q3.89,1.26,3.89,5.58-.14,6.21-7.47,6.15h-9Zm9.1,7.4c2.43,0,3.68-1.15,3.77-3.45S125.93,14,123.38,14h-6.09v6.78Zm.13,10.16a4.31,4.31,0,0,0,3.13-1,3.68,3.68,0,0,0,1.07-2.79q0-3.82-4.27-3.89h-6.21V30.9Z"/><path class="cls-2" d="M143.81,29.87a4.79,4.79,0,0,0,1-3v-8.6a1.67,1.67,0,0,1,1.89-1.88h1.12V26.51q0,7.15-7.21,7.16t-7.22-7.16V16.35h3V26.83a4.8,4.8,0,0,0,1,3,3.87,3.87,0,0,0,3.26,1.29A3.81,3.81,0,0,0,143.81,29.87Z"/><path class="cls-2" d="M165.14,13.34V26a9,9,0,0,1-1.63,5.52c-1.09,1.46-3.07,2.2-6,2.2s-4.84-.72-6-2.14-1.73-3.62-1.73-6.59q-.06-8.84,7.28-8.84a5.38,5.38,0,0,1,5.08,2.63V11.52h1.07A1.63,1.63,0,0,1,165.14,13.34ZM157.49,31c3.18,0,4.76-2.05,4.76-6.15s-1.58-6.15-4.76-6.15-4.77,2.05-4.77,6.15S154.31,31,157.49,31Z"/><path class="cls-2" d="M183.34,13.34V26a9,9,0,0,1-1.63,5.52c-1.09,1.46-3.07,2.2-6,2.2s-4.84-.72-6-2.14S168,27.91,168,24.94q-.06-8.84,7.28-8.84a5.37,5.37,0,0,1,5.08,2.63V11.52h1.07C182.72,11.52,183.34,12.12,183.34,13.34ZM175.69,31q4.77,0,4.77-6.15t-4.77-6.15q-4.77,0-4.77,6.15T175.69,31Z"/><path class="cls-2" d="M188.08,16.35l4.39,13,3.83-11.17a2.34,2.34,0,0,1,2.51-1.88H200l-6.9,19.57a7.53,7.53,0,0,1-2.2,3.14,4.42,4.42,0,0,1-3,.94h-.69V37.37H188a2.6,2.6,0,0,0,2.7-1.51,4.84,4.84,0,0,0-.06-3.51l-5.59-16Z"/><path class="cls-4" d="M114.34,13.34a1.61,1.61,0,0,1,1.82-1.82h7.53q6.28,0,6.4,5A5.37,5.37,0,0,1,127,21.62q3.89,1.26,3.89,5.58-.14,6.21-7.47,6.15h-9Zm9.1,7.4c2.43,0,3.68-1.15,3.77-3.45S125.93,14,123.38,14h-6.09v6.78Zm.13,10.16a4.31,4.31,0,0,0,3.13-1,3.68,3.68,0,0,0,1.07-2.79q0-3.82-4.27-3.89h-6.21V30.9Z"/><path class="cls-4" d="M143.81,29.87a4.79,4.79,0,0,0,1-3v-8.6a1.67,1.67,0,0,1,1.89-1.88h1.12V26.51q0,7.15-7.21,7.16t-7.22-7.16V16.35h3V26.83a4.8,4.8,0,0,0,1,3,3.87,3.87,0,0,0,3.26,1.29A3.81,3.81,0,0,0,143.81,29.87Z"/><path class="cls-4" d="M165.14,13.34V26a9,9,0,0,1-1.63,5.52c-1.09,1.46-3.07,2.2-6,2.2s-4.84-.72-6-2.14-1.73-3.62-1.73-6.59q-.06-8.84,7.28-8.84a5.38,5.38,0,0,1,5.08,2.63V11.52h1.07A1.63,1.63,0,0,1,165.14,13.34ZM157.49,31c3.18,0,4.76-2.05,4.76-6.15s-1.58-6.15-4.76-6.15-4.77,2.05-4.77,6.15S154.31,31,157.49,31Z"/><path class="cls-4" d="M183.34,13.34V26a9,9,0,0,1-1.63,5.52c-1.09,1.46-3.07,2.2-6,2.2s-4.84-.72-6-2.14S168,27.91,168,24.94q-.06-8.84,7.28-8.84a5.37,5.37,0,0,1,5.08,2.63V11.52h1.07C182.72,11.52,183.34,12.12,183.34,13.34ZM175.69,31q4.77,0,4.77-6.15t-4.77-6.15q-4.77,0-4.77,6.15T175.69,31Z"/><path class="cls-4" d="M188.08,16.35l4.39,13,3.83-11.17a2.34,2.34,0,0,1,2.51-1.88H200l-6.9,19.57a7.53,7.53,0,0,1-2.2,3.14,4.42,4.42,0,0,1-3,.94h-.69V37.37H188a2.6,2.6,0,0,0,2.7-1.51,4.84,4.84,0,0,0-.06-3.51l-5.59-16Z"/><path class="cls-4" d="M114.34,13.34a1.61,1.61,0,0,1,1.82-1.82h7.53q6.28,0,6.4,5A5.37,5.37,0,0,1,127,21.62q3.89,1.26,3.89,5.58-.14,6.21-7.47,6.15h-9Zm9.1,7.4c2.43,0,3.68-1.15,3.77-3.45S125.93,14,123.38,14h-6.09v6.78Zm.13,10.16a4.31,4.31,0,0,0,3.13-1,3.68,3.68,0,0,0,1.07-2.79q0-3.82-4.27-3.89h-6.21V30.9Z"/><path class="cls-4" d="M143.81,29.87a4.79,4.79,0,0,0,1-3v-8.6a1.67,1.67,0,0,1,1.89-1.88h1.12V26.51q0,7.15-7.21,7.16t-7.22-7.16V16.35h3V26.83a4.8,4.8,0,0,0,1,3,3.87,3.87,0,0,0,3.26,1.29A3.81,3.81,0,0,0,143.81,29.87Z"/><path class="cls-4" d="M165.14,13.34V26a9,9,0,0,1-1.63,5.52c-1.09,1.46-3.07,2.2-6,2.2s-4.84-.72-6-2.14-1.73-3.62-1.73-6.59q-.06-8.84,7.28-8.84a5.38,5.38,0,0,1,5.08,2.63V11.52h1.07A1.63,1.63,0,0,1,165.14,13.34ZM157.49,31c3.18,0,4.76-2.05,4.76-6.15s-1.58-6.15-4.76-6.15-4.77,2.05-4.77,6.15S154.31,31,157.49,31Z"/><path class="cls-4" d="M183.34,13.34V26a9,9,0,0,1-1.63,5.52c-1.09,1.46-3.07,2.2-6,2.2s-4.84-.72-6-2.14S168,27.91,168,24.94q-.06-8.84,7.28-8.84a5.37,5.37,0,0,1,5.08,2.63V11.52h1.07C182.72,11.52,183.34,12.12,183.34,13.34ZM175.69,31q4.77,0,4.77-6.15t-4.77-6.15q-4.77,0-4.77,6.15T175.69,31Z"/><path class="cls-4" d="M188.08,16.35l4.39,13,3.83-11.17a2.34,2.34,0,0,1,2.51-1.88H200l-6.9,19.57a7.53,7.53,0,0,1-2.2,3.14,4.42,4.42,0,0,1-3,.94h-.69V37.37H188a2.6,2.6,0,0,0,2.7-1.51,4.84,4.84,0,0,0-.06-3.51l-5.59-16Z"/><path class="cls-4" d="M13.48,11.92A4.22,4.22,0,0,1,9.2,16.07a4.22,4.22,0,0,1-4.28-4.15A4.21,4.21,0,0,1,9.2,7.78,4.21,4.21,0,0,1,13.48,11.92Z"/><path class="cls-5" d="M12.18,10.69a2.82,2.82,0,0,1-3,2.53,2.82,2.82,0,0,1-3.05-2.53A2.83,2.83,0,0,1,9.14,8.16,2.82,2.82,0,0,1,12.18,10.69Z"/><path class="cls-1" d="M21.51,5.57a.65.65,0,0,1-.65.65l-1.68.13c-.36,0-1.3-1.33-1.3-1.68V1.3a.65.65,0,0,1,.65-.65h2.33a.65.65,0,0,1,.65.65Z"/><path class="cls-4" d="M1.17,12.7c1.74,1,4.66,4,12.05,5.05,5.43.77,8,.11,8.42.78.78,1.3-1.94,1.94-4.53,3.11-2.36,1.06-1.85,2.52-1.43,5.44.52,3.63,1.3,6.35-.39,6.61s-4.15-7.38-6.87-7.12c-1.57.14-4,6.6-6.74,6.6s3.11-11.27,1-14.51S-1.3,11.27,1.17,12.7Z"/><path class="cls-6" d="M1.3,13.35a22.94,22.94,0,0,0,9.2,4.27c4.65,1.11,8.68.91,9.46,1.17s-.78,1.3-2.72,1.94-5.06,4.8-8.43,4.15-4.79-6-4.79-6S-.52,12.18,1.3,13.35Z"/><path class="cls-7" d="M6.22,5.9C6.41,5.83,12.37.26,13.61.26c.84,0,4.6,3.17,4.6,3.17a9,9,0,0,1,0-2.33,4.39,4.39,0,0,1,2.59,0c.1.4.19,4.73.19,4.73l4.8,4.6H23.33s-7.84-8.29-9.85-8.36C12,2,6.22,5.9,6.22,5.9Z"/></g></g></svg>